<svg xmlns="http://www.w3.org/2000/svg" width="16" height="16" fill="none" viewBox="0 0 16 16">
  <path fill="#F2C94C" d="M14.562.529a1.192 1.192 0 00-.555-.434A1.17 1.17 0 0013.54 0H2.46a1.17 1.17 0 00-.466.095 1.191 1.191 0 00-.555.434 1.122 1.122 0 00-.206.655v13.632c0 .24.069.458.206.655.138.198.323.342.555.434.148.063.304.095.466.095.331 0 .624-.116.877-.349L8 11.167l4.664 4.484c.247.226.539.338.877.338.177 0 .332-.028.466-.084a1.19 1.19 0 00.555-.434c.137-.197.206-.416.206-.655V1.185c0-.24-.069-.459-.206-.656z"/>
</svg>
