<svg xmlns="http://www.w3.org/2000/svg" width="146" height="24" fill="none" viewBox="0 0 146 24">
  <path fill="#F2C94C" d="M0 23.692V1.234h7.682c2.66 0 4.68.524 6.055 1.573C15.113 3.846 15.8 5.373 15.8 7.388c0 1.1-.276 2.072-.828 2.915-.552.833-1.32 1.445-2.304 1.836 1.124.288 2.008.869 2.65 1.743.653.874.98 1.943.98 3.208 0 2.16-.673 3.794-2.019 4.905-1.345 1.11-3.263 1.676-5.754 1.697H0zm4.519-9.78v6.062h3.87c1.065 0 1.894-.257 2.486-.77.603-.525.904-1.245.904-2.16 0-2.057-1.04-3.1-3.118-3.131H4.519zm0-3.27h3.344c2.279-.04 3.419-.971 3.419-2.791 0-1.018-.291-1.748-.874-2.19-.572-.453-1.481-.679-2.726-.679H4.519v5.66zM60.22 16.997l-1.567 1.605v5.09H54.3V0h4.353v13.126l.843-1.11 4.173-5.013h5.227l-5.89 6.956 6.402 9.733h-5.001l-4.188-6.695zM75.583 19.974h9.595v3.718H71.064V1.234h4.52v18.74zM86.82 15.193c0-1.656.311-3.131.934-4.427.622-1.296 1.516-2.298 2.68-3.008 1.176-.71 2.536-1.064 4.083-1.064 2.199 0 3.991.689 5.377 2.067 1.396 1.378 2.174 3.25 2.335 5.614l.03 1.142c0 2.56-.698 4.617-2.094 6.17C98.769 23.228 96.896 24 94.547 24c-2.35 0-4.228-.771-5.634-2.314-1.395-1.542-2.093-3.64-2.093-6.293v-.2zm4.353.324c0 1.583.291 2.797.873 3.64.583.833 1.416 1.25 2.5 1.25 1.055 0 1.879-1.338 2.471-2.16-.004-1.747-2.47-1.45-2.47-3.27 0-1.553 2.466-1.977 2.47-2.977-.592-.854-1.426-1.697-2.5-1.697-1.065 0-1.888.427-2.47 1.28-.583.844-.874 2.155-.874 3.934zM110.799 18.247l3.028-11.244h4.549l-5.498 16.688h-4.157l-5.498-16.688h4.549l3.027 11.244zM127.594 24c-2.39 0-4.338-.75-5.844-2.252-1.497-1.501-2.245-3.501-2.245-6v-.432c0-1.676.317-3.172.949-4.488.633-1.327 1.526-2.345 2.681-3.054 1.165-.72 2.491-1.08 3.977-1.08 2.229 0 3.981.72 5.257 2.16 1.285 1.44 1.927 3.48 1.927 6.123v1.82h-10.378c.141 1.09.563 1.964 1.266 2.622.713.658 1.611.987 2.696.987 1.677 0 2.987-.622 3.931-1.866l2.139 2.452c-.653.946-1.536 1.687-2.651 2.221-1.115.525-2.35.787-3.705.787zm-.497-13.697c-.864 0-1.567.298-2.109.895-.532.596-.874 1.45-1.024 2.56h6.055v-.354c-.02-.988-.281-1.748-.783-2.283-.503-.545-1.215-.818-2.139-.818zM145.94 11.182a11.576 11.576 0 00-1.567-.123c-1.647 0-2.726.57-3.238 1.712v10.92h-4.353V7.004h4.112l.12 1.99c.874-1.533 2.084-2.299 3.63-2.299.482 0 .934.067 1.356.2l-.06 4.288zM36.02 15.193c0-1.656.311-3.131.934-4.427.622-1.296 1.516-2.298 2.68-3.008 1.176-.71 2.536-1.064 4.083-1.064 2.199 0 3.991.689 5.377 2.067 1.396 1.378 2.174 3.25 2.335 5.614l.03 1.142c0 2.56-.698 4.617-2.094 6.17C47.969 23.228 46.096 24 43.747 24c-2.35 0-4.228-.771-5.634-2.314-1.395-1.542-2.093-3.64-2.093-6.293v-.2zm4.353.324c0 1.583.291 2.797.873 3.64.583.833 1.416 1.25 2.5 1.25 1.055 0 1.878-1.338 2.471-2.16-.004-1.747-2.47-1.45-2.47-3.27 0-1.553 2.466-1.977 2.47-2.977-.593-.854-1.426-1.697-2.5-1.697-1.065 0-1.888.427-2.47 1.28-.583.844-.874 2.155-.874 3.934zM18.73 15.193c0-1.656.311-3.131.934-4.427.623-1.296 1.516-2.298 2.681-3.008 1.175-.71 2.536-1.064 4.082-1.064 2.2 0 3.992.689 5.377 2.067 1.396 1.378 2.174 3.25 2.335 5.614l.03 1.142c0 2.56-.698 4.617-2.093 6.17C30.68 23.228 28.807 24 26.457 24c-2.35 0-4.227-.771-5.633-2.314-1.396-1.542-2.094-3.64-2.094-6.293v-.2zm4.353.324c0 1.583.292 2.797.874 3.64.582.833 1.416 1.25 2.5 1.25 1.055 0 1.878-1.338 2.47-2.16-.003-1.747-2.47-1.45-2.47-3.27 0-1.553 2.467-1.977 2.47-2.977-.592-.854-1.425-1.697-2.5-1.697-1.064 0-1.888.427-2.47 1.28-.582.844-.874 2.155-.874 3.934z"/>
</svg>
